<svg xmlns="http://www.w3.org/2000/svg" viewBox="0 0 190.11 284.15"><defs><style>.cls-1{fill:#1d1d1b;}.cls-2{fill:#706f6f;}.cls-3{fill:#feffff;}.cls-4{fill:#7ac9f0;}.cls-5{fill:#575756;}.cls-6{fill:none;}</style></defs><title>pinguinpunguin1</title><g id="Слой_2" data-name="Слой 2"><g id="body"><path class="cls-1" d="M164.28,191s-1.47-26.05-19-54.48c-3.27-5.29-10.18-14.38-10.36-14.59l-.37-.46-.17-.2c-.28-.39.16-1.3.16-1.3.93-2,1.82-28,1.22-30a.9.9,0,0,1,0-.71c.22-.35.77-.36,1-.38,1.36-.15,2.4-3.16,2.46-3.35,1.79-5.3-.86-17.53,3.29-23.49a8.87,8.87,0,0,0,1.14-2c1.06-2.66.3-5.06-.51-8.59-1.22-5.31-.59-4.65-1.45-7.77A40.51,40.51,0,0,0,135.36,31c-8.92-12.59-23.5-17.27-24.64-17.62a50.61,50.61,0,0,0-9.94-2c-1.56-3.64-3.72-8.63-4.08-8.5s2.32,6,.88,7.07C95.26,11.57,83.5-.34,83.18,0s4.83,4.2,8.2,11.34A41,41,0,0,0,81,13.9c-9.22,3.62-14.61,9.6-17.94,13.39C50.32,41.83,48.29,59.56,46.93,71c-.74,6.27-1.08,16.11-1.13,18.69-.07,3.36.12,6.87.06,7.75a2.12,2.12,0,0,0,0,1.11c.08.19.22.4.14.62a.5.5,0,0,1-.25.26c-.36.22-11.71,12.06-21,30.43A137,137,0,0,0,11.94,170s-4.66,29.06,1.9,53.05c1.61,5.89,5.94,16.62,6.28,17.36.62,1.36.66,1.42.66,1.42.16.23.27.36.26.55,0,.51-1.08.8-1.23.85C16.34,244.39,2.2,274.6.23,276.49c-.05.05-.27.25-.22.4.18.54,3.42-.1,4.39-.28,6.12-1.17,12.34-1.69,18.5-2.59L37,272.31c8.16-1,12.24-1.48,12.29-1.5a1.67,1.67,0,0,1,1-.12c1.13.22,1.26,1.71,2.22,2.36,1.25.85,3.27-.12,3.84-.37,6.35-2.84,13.77-2.18,20.51-3.89C99,263.17,127.35,261,128.12,261a1.13,1.13,0,0,0,.59-.06,1.32,1.32,0,0,0,.57-.48c.48-.69,8.38-7.05,12.26-10.8,6.56-6.33,11.11-14.32,12.72-17.15a73,73,0,0,0,8.7-21.41A74.9,74.9,0,0,0,164.28,191Z"/><path class="cls-2" d="M134.17,65.82a17.62,17.62,0,0,1,5.68-4.42c3.43-1.72,7-2.3,12.38-2.15A72.91,72.91,0,0,1,172.7,63c9.91,3,14.42,6.22,16.22,6.47a1.47,1.47,0,0,1,1,.48c.49.64.05,1.76-.06,2a5.86,5.86,0,0,1-2.77,2.77,24.15,24.15,0,0,1-5.73,2.49c-7.66,1.8-4.24,1.7-11.89,3.22A100.68,100.68,0,0,1,155,82.73a61.14,61.14,0,0,1-20.13-2.51,5.31,5.31,0,0,1-1.52-.76c-2.28-1.67-2.52-4.86-2.55-5.4C130.5,70.23,132.92,67.32,134.17,65.82Z"/><path class="cls-3" d="M135.73,123.29c-12.09-1.55-26.44,30.74-32.34,52-3.54,12.78-6.24,23-3.79,36.13,3.48,18.63,17.08,41.82,32.34,41.18,9.67-.41,16.45-10.23,23-19.71,3.5-5.07,12.85-20.11,11.87-39.91-.32-6.6-1.68-11.4-3.85-19.08a144.78,144.78,0,0,0-11.37-27.6C143.69,131.32,139.75,123.81,135.73,123.29Z"/><ellipse class="cls-4" cx="118.44" cy="44.22" rx="9.05" ry="10.99"/><ellipse class="cls-1" cx="120.39" cy="46.58" rx="7.1" ry="8.62"/><path class="cls-3" d="M121,41.68c.61,1.3,1.45,1.11,2.2,2.23a5.15,5.15,0,0,1,.64,3.57.24.24,0,0,0,0,.17c0,.18.38.23.43.24a1.23,1.23,0,0,0,.82-.22c.38-.28.48-.8.52-1.91a9.52,9.52,0,0,0-.09-2.69,4.13,4.13,0,0,0-2-2.59c-1-.43-2.32-.46-2.64.11C120.62,40.92,120.81,41.34,121,41.68Z"/><path class="cls-5" d="M46.89,272.85c-.9,2.52,3.85,7.15,11.3,11.3,65.94-2.43,92.37-3.12,94.55-2.77a5.79,5.79,0,0,0,2.4-.07,7.31,7.31,0,0,0,3.79-2.65c.66-.79,4.26-5.09,3-9.85-.33-1.27-1.34-3.9-5.93-6.57-8.41-4.88-18.11-3.68-22-3.16-36.15,4.91-65.62,9-72.26,9.35-.1,0-1.57.09-3.53.38C54.31,269.39,47.77,270.37,46.89,272.85Z"/><path class="cls-6" d="M148.36,70.87Q190,72.4,190.09,71c0-.2-.67-.46-2.07-.77"/></g></g></svg>